<svg width="20" height="13" viewBox="0 0 20 13" fill="none" xmlns="http://www.w3.org/2000/svg">
<path d="M9.786 12.9452H10.9811C10.9811 12.9452 11.3424 12.8997 11.5261 12.6732C11.6961 12.4653 11.6899 12.0751 11.6899 12.0751C11.6899 12.0751 11.6661 10.248 12.4112 9.97882C13.145 9.71394 14.0876 11.7447 15.0864 12.5265C15.8414 13.1176 16.4152 12.988 16.4152 12.988L19.0867 12.9452C19.0867 12.9452 20.4843 12.847 19.8217 11.5952C19.768 11.4926 19.4355 10.6695 17.8353 8.97768C16.1602 7.20609 16.3852 7.49376 18.4029 4.43051C19.6317 2.56493 20.123 1.42565 19.9692 0.938606C19.823 0.474348 18.9192 0.596821 18.9192 0.596821L15.9139 0.616758C15.9139 0.616758 15.6914 0.58258 15.5252 0.695084C15.3639 0.806164 15.2601 1.0625 15.2601 1.0625C15.2601 1.0625 14.7839 2.50655 14.1488 3.73412C12.81 6.32457 12.2737 6.46128 12.0549 6.30036C11.5461 5.92582 11.6736 4.79366 11.6736 3.99046C11.6736 1.47977 12.0074 0.433048 11.0223 0.162469C10.6948 0.07275 10.4548 0.0129376 9.61848 0.00296885C8.54591 -0.00984809 7.63709 0.00724116 7.1233 0.293486C6.78078 0.484316 6.51701 0.910124 6.67827 0.934334C6.87703 0.96424 7.32707 1.07247 7.56583 1.44274C7.87461 1.91981 7.86336 2.99359 7.86336 2.99359C7.86336 2.99359 8.04087 5.94861 7.44958 6.31602C7.0433 6.56809 6.48701 6.05399 5.29317 3.70279C4.68187 2.49942 4.21934 1.16789 4.21934 1.16789C4.21934 1.16789 4.13058 0.920093 3.97182 0.787651C3.77931 0.626727 3.50929 0.575459 3.50929 0.575459L0.651577 0.595397C0.651577 0.595397 0.222795 0.609638 0.0652839 0.821829C-0.0747264 1.01124 0.054033 1.40144 0.054033 1.40144C0.054033 1.40144 2.2917 7.36417 4.82438 10.3705C7.1483 13.1261 9.786 12.9452 9.786 12.9452Z" fill="white"/>
</svg>
